<svg id="visual" viewBox="0 0 960 540" width="960" height="540" xmlns="http://www.w3.org/2000/svg" xmlns:xlink="http://www.w3.org/1999/xlink" version="1.1"><path d="M0 98L22.8 91.7C45.7 85.3 91.3 72.7 137 82.7C182.7 92.7 228.3 125.3 274 129.8C319.7 134.3 365.3 110.7 411.2 106.2C457 101.7 503 116.3 548.8 119.2C594.7 122 640.3 113 686 107.5C731.7 102 777.3 100 823 101.7C868.7 103.3 914.3 108.7 937.2 111.3L960 114L960 0L937.2 0C914.3 0 868.7 0 823 0C777.3 0 731.7 0 686 0C640.3 0 594.7 0 548.8 0C503 0 457 0 411.2 0C365.3 0 319.7 0 274 0C228.3 0 182.7 0 137 0C91.3 0 45.7 0 22.8 0L0 0Z" fill="#004cbb"></path><path d="M0 136L22.8 125.2C45.7 114.3 91.3 92.7 137 99C182.7 105.3 228.3 139.7 274 144.2C319.7 148.7 365.3 123.3 411.2 120.7C457 118 503 138 548.8 141.7C594.7 145.3 640.3 132.7 686 126.3C731.7 120 777.3 120 823 120.8C868.7 121.7 914.3 123.3 937.2 124.2L960 125L960 112L937.2 109.3C914.3 106.7 868.7 101.3 823 99.7C777.3 98 731.7 100 686 105.5C640.3 111 594.7 120 548.8 117.2C503 114.3 457 99.7 411.2 104.2C365.3 108.7 319.7 132.3 274 127.8C228.3 123.3 182.7 90.7 137 80.7C91.3 70.7 45.7 83.3 22.8 89.7L0 96Z" fill="#0051c7"></path><path d="M0 158L22.8 148C45.7 138 91.3 118 137 126C182.7 134 228.3 170 274 172.7C319.7 175.3 365.3 144.7 411.2 138.3C457 132 503 150 548.8 156.3C594.7 162.7 640.3 157.3 686 152.8C731.7 148.3 777.3 144.7 823 143.8C868.7 143 914.3 145 937.2 146L960 147L960 123L937.2 122.2C914.3 121.3 868.7 119.7 823 118.8C777.3 118 731.7 118 686 124.3C640.3 130.7 594.7 143.3 548.8 139.7C503 136 457 116 411.2 118.7C365.3 121.3 319.7 146.7 274 142.2C228.3 137.7 182.7 103.3 137 97C91.3 90.7 45.7 112.3 22.8 123.2L0 134Z" fill="#0055d3"></path><path d="M0 195L22.8 183.3C45.7 171.7 91.3 148.3 137 156.5C182.7 164.7 228.3 204.3 274 212.5C319.7 220.7 365.3 197.3 411.2 197.3C457 197.3 503 220.7 548.8 233.2C594.7 245.7 640.3 247.3 686 237.5C731.7 227.7 777.3 206.3 823 200.2C868.7 194 914.3 203 937.2 207.5L960 212L960 145L937.2 144C914.3 143 868.7 141 823 141.8C777.3 142.7 731.7 146.3 686 150.8C640.3 155.3 594.7 160.7 548.8 154.3C503 148 457 130 411.2 136.3C365.3 142.7 319.7 173.3 274 170.7C228.3 168 182.7 132 137 124C91.3 116 45.7 136 22.8 146L0 156Z" fill="#005ae0"></path><path d="M0 212L22.8 201.2C45.7 190.3 91.3 168.7 137 177.7C182.7 186.7 228.3 226.3 274 235.3C319.7 244.3 365.3 222.7 411.2 221.7C457 220.7 503 240.3 548.8 252.8C594.7 265.3 640.3 270.7 686 261.7C731.7 252.7 777.3 229.3 823 221.3C868.7 213.3 914.3 220.7 937.2 224.3L960 228L960 210L937.2 205.5C914.3 201 868.7 192 823 198.2C777.3 204.3 731.7 225.7 686 235.5C640.3 245.3 594.7 243.7 548.8 231.2C503 218.7 457 195.3 411.2 195.3C365.3 195.3 319.7 218.7 274 210.5C228.3 202.3 182.7 162.7 137 154.5C91.3 146.3 45.7 169.7 22.8 181.3L0 193Z" fill="#005fec"></path><path d="M0 249L22.8 243.7C45.7 238.3 91.3 227.7 137 237.7C182.7 247.7 228.3 278.3 274 287.3C319.7 296.3 365.3 283.7 411.2 286.3C457 289 503 307 548.8 314.2C594.7 321.3 640.3 317.7 686 308.7C731.7 299.7 777.3 285.3 823 282.7C868.7 280 914.3 289 937.2 293.5L960 298L960 226L937.2 222.3C914.3 218.7 868.7 211.3 823 219.3C777.3 227.3 731.7 250.7 686 259.7C640.3 268.7 594.7 263.3 548.8 250.8C503 238.3 457 218.7 411.2 219.7C365.3 220.7 319.7 242.3 274 233.3C228.3 224.3 182.7 184.7 137 175.7C91.3 166.7 45.7 188.3 22.8 199.2L0 210Z" fill="#0064f9"></path><path d="M0 271L22.8 267.3C45.7 263.7 91.3 256.3 137 265.3C182.7 274.3 228.3 299.7 274 307C319.7 314.3 365.3 303.7 411.2 308.2C457 312.7 503 332.3 548.8 341.3C594.7 350.3 640.3 348.7 686 337.8C731.7 327 777.3 307 823 303.3C868.7 299.7 914.3 312.3 937.2 318.7L960 325L960 296L937.2 291.5C914.3 287 868.7 278 823 280.7C777.3 283.3 731.7 297.7 686 306.7C640.3 315.7 594.7 319.3 548.8 312.2C503 305 457 287 411.2 284.3C365.3 281.7 319.7 294.3 274 285.3C228.3 276.3 182.7 245.7 137 235.7C91.3 225.7 45.7 236.3 22.8 241.7L0 247Z" fill="#126bff"></path><path d="M0 314L22.8 310.5C45.7 307 91.3 300 137 306.3C182.7 312.7 228.3 332.3 274 339.5C319.7 346.7 365.3 341.3 411.2 345C457 348.7 503 361.3 548.8 370.3C594.7 379.3 640.3 384.7 686 373.8C731.7 363 777.3 336 823 330.5C868.7 325 914.3 341 937.2 349L960 357L960 323L937.2 316.7C914.3 310.3 868.7 297.7 823 301.3C777.3 305 731.7 325 686 335.8C640.3 346.7 594.7 348.3 548.8 339.3C503 330.3 457 310.7 411.2 306.2C365.3 301.7 319.7 312.3 274 305C228.3 297.7 182.7 272.3 137 263.3C91.3 254.3 45.7 261.7 22.8 265.3L0 269Z" fill="#2874ff"></path><path d="M0 465L22.8 461.5C45.7 458 91.3 451 137 445.7C182.7 440.3 228.3 436.7 274 435.7C319.7 434.7 365.3 436.3 411.2 440.8C457 445.3 503 452.7 548.8 457.2C594.7 461.7 640.3 463.3 686 460.7C731.7 458 777.3 451 823 442C868.7 433 914.3 422 937.2 416.5L960 411L960 355L937.2 347C914.3 339 868.7 323 823 328.5C777.3 334 731.7 361 686 371.8C640.3 382.7 594.7 377.3 548.8 368.3C503 359.3 457 346.7 411.2 343C365.3 339.3 319.7 344.7 274 337.5C228.3 330.3 182.7 310.7 137 304.3C91.3 298 45.7 305 22.8 308.5L0 312Z" fill="#387dff"></path><path d="M0 476L22.8 475.2C45.7 474.3 91.3 472.7 137 469.2C182.7 465.7 228.3 460.3 274 462.2C319.7 464 365.3 473 411.2 476.5C457 480 503 478 548.8 480.7C594.7 483.3 640.3 490.7 686 490.7C731.7 490.7 777.3 483.3 823 474.3C868.7 465.3 914.3 454.7 937.2 449.3L960 444L960 409L937.2 414.5C914.3 420 868.7 431 823 440C777.3 449 731.7 456 686 458.7C640.3 461.3 594.7 459.7 548.8 455.2C503 450.7 457 443.3 411.2 438.8C365.3 434.3 319.7 432.7 274 433.7C228.3 434.7 182.7 438.3 137 443.7C91.3 449 45.7 456 22.8 459.5L0 463Z" fill="#4686ff"></path><path d="M0 498L22.8 500.7C45.7 503.3 91.3 508.7 137 506.8C182.7 505 228.3 496 274 495.2C319.7 494.3 365.3 501.7 411.2 505.3C457 509 503 509 548.8 510.7C594.7 512.3 640.3 515.7 686 515.7C731.7 515.7 777.3 512.3 823 508.8C868.7 505.3 914.3 501.7 937.2 499.8L960 498L960 442L937.2 447.3C914.3 452.7 868.7 463.3 823 472.3C777.3 481.3 731.7 488.7 686 488.7C640.3 488.7 594.7 481.3 548.8 478.7C503 476 457 478 411.2 474.5C365.3 471 319.7 462 274 460.2C228.3 458.3 182.7 463.7 137 467.2C91.3 470.7 45.7 472.3 22.8 473.2L0 474Z" fill="#548fff"></path><path d="M0 541L22.8 541C45.7 541 91.3 541 137 541C182.7 541 228.3 541 274 541C319.7 541 365.3 541 411.2 541C457 541 503 541 548.8 541C594.7 541 640.3 541 686 541C731.7 541 777.3 541 823 541C868.7 541 914.3 541 937.2 541L960 541L960 496L937.2 497.8C914.3 499.7 868.7 503.3 823 506.8C777.3 510.3 731.7 513.7 686 513.7C640.3 513.7 594.7 510.3 548.8 508.7C503 507 457 507 411.2 503.3C365.3 499.7 319.7 492.3 274 493.2C228.3 494 182.7 503 137 504.8C91.3 506.7 45.7 501.3 22.8 498.7L0 496Z" fill="#6198ff"></path></svg>